<?xml version="1.0" standalone="no"?><!DOCTYPE svg PUBLIC "-//W3C//DTD SVG 1.1//EN" "http://www.w3.org/Graphics/SVG/1.1/DTD/svg11.dtd"><svg class="icon" width="16px" height="16.00px" viewBox="0 0 1024 1024" version="1.1" xmlns="http://www.w3.org/2000/svg"><path fill="#999999" d="M490.338 592.738c11.816 11.816 29.539 11.816 41.354 0L976.738 179.2c7.877-15.754 5.908-41.354-25.6-41.354l-880.246 1.97c-23.63 0-43.323 21.66-25.6 41.353l445.046 411.57z m494.277-252.061c0-19.692-23.63-31.508-39.384-17.723L596.677 643.938c-23.63 21.662-53.17 33.477-84.677 33.477s-61.046-11.815-84.677-31.507L80.738 322.954c-15.753-13.785-39.384-3.939-39.384 17.723-1.97-5.908-1.97 447.015-1.97 447.015 0 43.323 35.447 78.77 78.77 78.77h787.692c43.323 0 78.77-35.447 78.77-78.77V340.677z" /></svg>