<?xml version="1.0" standalone="no"?><!DOCTYPE svg PUBLIC "-//W3C//DTD SVG 1.1//EN" "http://www.w3.org/Graphics/SVG/1.1/DTD/svg11.dtd"><svg t="1691829041319" class="icon" viewBox="0 0 1024 1024" version="1.1" xmlns="http://www.w3.org/2000/svg" p-id="2427" width="64" height="64" xmlns:xlink="http://www.w3.org/1999/xlink"><path d="M391.60794075 22.48021333c83.49771852-15.01664355 174.76266667-25.50240355 254.37677036 10.74466724 17.73517392 26.53803498 10.22685275 59.93712238 14.7577363 89.71150223 18.51189689 9.45012978 38.05942518 16.57008947 56.44186904 26.02021926 3.88361482 2.07126164 11.78029868 6.2137837 15.66391228 8.28504534l-1.55344592 5.69596799c-9.83849127 29.12711111 41.29577127 47.25064651 23.43114311 78.06065778-6.34323794 16.57008947-22.39551169 10.48576-35.47034903 9.19122254 2.97743762-8.02613689 8.93231408-23.94895762 11.90975289-31.84564148-23.94895762-23.17223466-64.85636741 24.72568059-40.00123259 44.92047762-47.12119349 24.3373191-101.88016238 21.35988148-153.40278518 24.33731909-89.97040947 0.77672297-181.49426608 3.88361482-269.65232238-16.95845094-27.96202667-5.04869925-52.55825423-33.91690311-44.01430164-62.91456 16.05227498-19.80643555 35.7292563-36.24707201 52.81716148-55.01787614l7.24941514-3.7541618c75.73048889-0.51781571 43.23757868-106.54050016 107.44667614-126.47638873m188.74368 29.77437984c13.46319762 32.49291022 20.71261275 66.66872059 24.72568057 101.4918009 38.70669392-20.19479703 20.06534281-101.88016238-24.72568057-101.4918009z" fill="#359F69" p-id="2428"></path><path d="M580.35162075 52.25459317c44.79102461-0.38836148 63.43237571 81.29700386 24.72568057 101.4918009-4.01306905-34.8230791-11.26248297-68.99888947-24.72568057-101.4918009z" fill="#FFFFF8" p-id="2429"></path><path d="M116.13019614 96.78671052c59.5487609-29.25656534 123.11058963 15.01664355 168.03106847 52.16989154l-7.24941514 3.7541618c-49.32190815 8.02613689-88.02860206 51.52262281-68.48107376 102.39797687-136.83269571 91.65330963-188.61422577 276.9017363-165.31253809 434.05868207 33.78744889 218.00024534 234.9586963 391.85673482 455.54801777 393.79854222 224.73184355 10.74466725 441.82591169-157.67476148 480.92096831-380.59425185 37.92997095-182.14153482-45.17938608-373.86265244-192.10947909-484.41622043a279.42608592 279.42608592 0 0 0-56.1829618-55.01787735l1.55344592-5.69596799c55.14733037-17.08790518 103.82196978-63.69128297 165.18308386-51.91098429 42.46085571 7.50832238 56.7007763 56.31241482 60.71384535 93.33620858 9.96794429 54.50006164-5.30760651 108.61176059-5.69596921 162.9823692 114.04882132 198.19380978 70.29342815 473.02428445-103.82196857 622.9318163-177.99901275 165.57144534-477.29626075 169.71396741-660.99124148 11.0035745C13.86167349 853.5737837-44.13364148 588.71125333 59.42941984 388.18727465c28.22093392-39.35396386-1.03563022-86.08679466 4.40143053-129.58328058 2.45962311-55.7945991 0.64726873-126.47638873 52.29934577-161.81728355m791.22179201 89.06423228c-33.39908741 42.07249423-33.14018016 102.78633836 21.48933571 126.08802846 4.01306905-42.84921719-0.51781571-86.21624889-8.28504534-128.41819735-3.3657991 0.64726873-9.83849127 1.81235317-13.20429037 2.33016889m-804.81444386 9.0617683a948.11983053 948.11983053 0 0 0-0.38836148 99.67944651c60.84329836-1.03563022 44.14375466-88.54641778 0.38836148-99.67944651z" fill="#F0AD54" p-id="2430"></path><path d="M717.18431645 148.95660206c57.99531498-35.34089482 123.36949689-79.74355794 194.82800947-62.00838281 59.28985244 19.93588978 67.83380502 92.55948683 71.4585126 146.02391705-0.90617719 42.59030873 7.24941392 99.54999349-30.42164979 128.67710459 0.38836148-54.37060741 15.66391349-108.48230756 5.69596921-162.9823692-4.01306905-37.02379498-18.25298963-85.82788741-60.71384535-93.33620858-61.36111408-11.78029868-110.03575349 34.8230791-165.18308386 51.91098429-3.88361482-2.07126164-11.78029868-6.2137837-15.66391228-8.28504534z" fill="#E59308" p-id="2431"></path><path d="M208.43077571 255.10874073c-19.54752831-50.87535408 19.15916683-94.37184 68.48107376-102.39797687-17.08790518 18.77080534-36.76488651 35.21144059-52.81716148 55.01787614-8.54395259 28.99765689 16.05227498 57.86586075 44.01430164 62.91456 88.1580563 20.84206577 179.68191169 17.73517392 269.65232238 16.95845094 51.52262281-2.97743762 106.28159169 0 153.40278518-24.33731909 6.99050667-3.3657991 21.10097423-9.83849127 28.0914797-13.07483614 13.07483614 1.29453868 29.12711111 7.37886815 35.47034903-9.19122254 17.86462815-30.81001127-33.26963317-48.93354667-23.43114311-78.06065778 21.35988148 15.66391349 40.13068683 34.17581037 56.1829618 55.01787735-11.13302873 27.31475794-24.59622756 59.16039941-57.08913778 65.50363614-132.30181095 36.50597925-271.20576831 20.58315852-406.61447112 22.13660445-41.68413275-8.02613689-82.85044978-22.26605868-115.34336-50.4869926z" fill="#376C55" p-id="2432"></path><path d="M907.35198815 185.8509428c3.3657991-0.51781571 9.83849127-1.68290016 13.20429037-2.33016889 7.76722963 42.20194725 12.29811317 85.56898016 8.28504534 128.41819735-54.62951466-23.30168889-54.88842311-84.01553423-21.48933571-126.08802846zM102.53754429 194.9127111c43.75539317 11.13302873 60.45493689 98.6438163-0.38836148 99.67944651-1.68290016-33.26963317-1.42399169-66.53926756 0.38836148-99.67944651z" fill="#FDEC78" p-id="2433"></path><path d="M691.16409719 263.26433185c-24.85513482-20.19479703 16.05227498-68.09271349 40.00123259-44.92047762-2.97743762 7.89668386-8.93231408 23.81950461-11.90975289 31.84564148-6.99050667 3.23634608-21.10097423 9.70903703-28.0914797 13.07483614z" fill="#FFFFF8" p-id="2434"></path><path d="M787.47774461 217.95549274c146.93009423 110.55356799 230.03945127 302.27468683 192.10947909 484.41622043-0.38836148-29.90383408-1.03563022-59.80766815-4.27197629-89.58204799-67.1865363 22.00715022-142.5286637 12.42756741-198.97053275-31.58673424 39.48341689-25.11404206 93.98347852-57.99531498 82.72099556-113.40155259-18.77080534-63.69128297-91.52385539-80.13191941-148.35408593-92.43003258-36.24707201-23.30168889-81.29700386-49.96917689-124.92294281-29.12711112-57.99531498 22.00715022-67.31599053 104.98705423-26.53803497 147.18900149 30.42164978 77.41338905 117.15571317 93.59511703 191.20330312 89.19368772-52.04043852 13.33374461-102.65688534 61.23165984-158.32203022 35.3408948-46.86228502-14.23992059-76.37775762-70.0345209-131.26618073-58.77203793-53.59388445-5.56651498-82.59154132 43.49648592-121.68659793 69.25779793-41.03686281-3.23634608-83.10935703-16.57008947-114.17827557-44.66157036 70.55233539 2.58907614 147.83627022-26.14967349 166.60707557-101.4918009 43.75539317-27.96202667 29.25656534-94.37184-5.04869927-124.4051283-23.69005037-26.40858075-61.62002132-19.80643555-93.20675556-21.74824296 10.22685275-10.09739852 20.45370429-20.32425127 30.42164979-30.55110281 135.40870281-1.55344592 274.31266016 14.36937482 406.61447112-22.13660445 32.49291022-6.34323794 45.95610905-38.18887941 57.08913778-65.50363614z" fill="#FDEC78" p-id="2435"></path><path d="M43.11823762 689.1674228c-23.30168889-157.15694577 28.47984238-342.40537244 165.31253809-434.05868207 32.49291022 28.22093392 73.65922725 42.46085571 115.34336 50.4869926-9.96794429 10.22685275-20.19479703 20.45370429-30.42164979 30.55110281-24.07841185 14.23992059-46.47392355 30.81001127-69.77561243 46.21501629-43.10812445 17.34681244-86.08679466 47.12119349-95.01910994 95.92528592 3.10689185 52.68770725 52.04043852 80.90864238 91.78276386 105.7637772-56.7007763 14.23992059-114.69609127-4.91924502-171.91468207 2.71853037-4.78979201 33.91690311-5.43706075 68.22216651-5.30760772 102.39797688z" fill="#FFCD73" p-id="2436"></path><path d="M293.35248592 336.14683614c31.58673423 1.94180741 69.51670518-4.66033778 93.20675556 21.74824296 34.30526461 30.03328831 48.80409244 96.44310164 5.04869927 124.4051283-13.72210608-78.31956502-96.31364741-111.45974518-168.03106726-99.93835497 23.30168889-15.40500502 45.69720059-31.97509571 69.77561243-46.21501629zM585.78868148 346.24423465c43.62594016-20.84206577 88.67587201 5.82542222 124.92294281 29.12711112-64.98582164 12.94538311-141.49303349 42.71976297-151.46097778 118.06189037-40.77795555-42.20194725-31.45728-125.18185127 26.53803497-147.18900149z" fill="#FFFFF8" p-id="2437"></path><path d="M559.25064651 493.43323614c9.96794429-75.34212741 86.47515614-105.11650725 151.46097778-118.06189037 56.83023053 12.29811317 129.58328059 28.73874963 148.35408593 92.43003258 11.26248297 55.40623762-43.23757868 88.28751053-82.72099556 113.40155259-6.47269095 0.38836148-19.41807408 1.03563022-25.89076503 1.42399292-74.04758873 4.40143053-160.78165333-11.78029868-191.20330312-89.19368772m111.20083794-89.84095525c-45.3088391 8.54395259-106.54050016 50.87535408-84.53334874 103.69251555 37.80051794 61.10220683 122.33386667 68.86943645 186.02514963 52.04043852 26.92639645-18.38244386-31.32782577-15.27555201-36.89434073-33.91690311-39.35396386-45.17938608 5.82542222-109.90629925 60.84329836-105.7637772-35.98816355-25.63185778-83.88608-25.50240355-125.44075852-16.05227376m141.23412502 38.05942519c-24.59622756 5.43706075-18.90025836 52.55825423 9.06176831 45.95610783 26.66748799-4.14252206 17.47626667-53.33497719-9.06176831-45.95610783zM128.55776355 478.28713835c8.93231408-48.80409244 51.91098429-78.57847349 95.01910994-95.92528592 71.71741984-11.52139022 154.30896238 21.61878873 168.03106726 99.93835497-18.77080534 75.34212741-96.05474016 104.08087703-166.60707557 101.4918009l-4.66033777 0.25890725c-39.74232534-24.85513482-88.67587201-53.07606873-91.78276386-105.7637772m89.06423348-74.17704296c-37.28270222 10.87412148-74.95376592 44.79102461-70.03452089 86.86351884 18.90025836 68.48107498 112.23646815 91.13549392 169.97287587 59.1603982-26.66748799-11.65084445-61.10220683-26.27912651-61.10220683-60.84329836-8.80285984-42.97867022 35.85871053-68.22216651 72.88250429-69.12834371-24.98458905-33.39908741-76.11885037-22.91332741-111.71865244-16.05227497m127.12365868 40.0012326c-28.86820386 4.66033778-17.47626667 49.83972386 8.5439526 42.59030994 28.0914809-2.58907614 18.64135111-51.52262281-8.5439526-42.59030994z" fill="#1F1F1F" p-id="2438"></path><path d="M217.62199703 404.11009539c35.59980206-6.86105244 86.73406461-17.34681244 111.71865244 16.05227497-37.02379498 0.90617719-81.68536534 26.14967349-72.88250429 69.12834371 0 34.56417185 34.43471762 49.19245392 61.10220683 60.84329836-57.73640651 31.97509571-151.0726163 9.32067555-169.97287587-59.1603982-4.91924502-42.07249423 32.75181868-75.98939614 70.03452089-86.86351884zM670.45148445 403.59228089c41.55467852-9.45012978 89.45259498-9.57958281 125.44075852 16.05227376-55.01787614-4.14252206-100.19726222 60.58439111-60.84329836 105.7637772 5.56651498 18.64135111 63.82073719 15.53445925 36.89434073 33.91690311-63.69128297 16.82899794-148.22463169 9.06176831-186.02514963-52.04043852-22.00715022-52.81716148 39.22450963-95.14856297 84.53334874-103.69251555z" fill="#FFFFF8" p-id="2439"></path><path d="M344.74565571 444.11132799c27.1853037-8.93231408 36.63543349 40.00123259 8.5439526 42.59030994-26.02021925 7.24941392-37.41215645-37.92997095-8.5439526-42.59030994zM811.68560947 441.65170608c26.53803498-7.37886815 35.7292563 41.81358577 9.06176831 45.95610783-27.96202667 6.60214518-33.65799466-40.51904831-9.06176831-45.95610783z" fill="#7B8B70" p-id="2440"></path><path d="M339.17914075 628.45357866c39.09505539-25.76131201 68.09271349-74.82431169 121.68659793-69.25779793 54.88842311-11.26248297 84.40389571 44.53211614 131.26618073 58.77203793 55.66514608 25.89076502 106.28159169-22.00715022 158.32203022-35.3408948 6.47269095-0.38836148 19.41807408-1.03563022 25.89076503-1.42399292 56.44186905 44.01430164 131.78399645 53.59388445 198.97053275 31.58673424 3.23634608 29.77437984 3.88361482 59.67821392 4.27197629 89.58204799-39.09505539 222.91949037-256.18912355 391.3389191-480.92096831 380.59425185-220.58932148-1.94180741-421.76056889-175.79829689-455.54801777-393.79854222-0.12945423-34.17581037 0.51781571-68.48107498 5.30760772-102.39797688 57.21859201-7.63777539 115.21390577 11.52139022 171.91468207-2.71853037l4.66033777-0.25890725c31.06891852 28.0914809 73.14141275 41.42522429 114.17827557 44.66157036m-44.14375467 45.04993186c-27.70311941 9.83849127-15.53445925 47.76846222-6.47269216 67.7043508 13.46319762 33.14018016 60.06657539 37.41215645 68.09271349 73.52977423 4.53088355 24.72568059 30.68055703 48.54518518 23.17223465 73.01195852-40.13068683 9.19122132-90.61767941 4.91924502-115.99062873-31.84564149-12.03920592-10.09739852-18.51189689-34.04635614-38.18887941-29.12711111-6.2137837 49.45136238 49.0630009 82.85044978 91.52385661 92.17112535 42.46085571 13.20429037 82.85044978-22.52496592 124.79348857-7.63777662 75.21267317 24.72568059 160.39329185-0.12945423 216.31734519-54.3706074 11.78029868-11.13302873 14.62828206-24.46677333 8.28504534-40.13068561-32.62236445 17.21735941-54.88842311 49.96917689-90.61767941 62.26729005-71.45851259 30.93946429-181.6237191 12.29811317-195.86363969-77.6722963 14.49882905-40.77795555 86.08679466-70.68178963 61.36111408-123.24004264-45.56774756-18.38244386-99.03217778-13.8515591-146.41227853-4.66033778z" fill="#FFFFAB" p-id="2441"></path><path d="M295.03538608 673.50351052c47.38010075-9.19122132 100.84453095-13.72210608 146.41227853 4.66033778 24.72568059 52.55825423-46.86228502 82.46208831-61.36111408 123.24004264 14.23992059 89.97040947 124.40512831 108.61176059 195.86363969 77.6722963 35.7292563-12.29811317 57.99531498-45.04993185 90.61767941-62.26729005 6.34323794 15.66391349 3.49525333 28.99765689-8.28504534 40.13068561-55.92405333 54.24115317-141.10467201 79.09628799-216.31734519 54.3706074-41.94304-14.88719053-82.33263408 20.84206577-124.79348857 7.63777662-42.46085571-9.32067555-97.7376391-42.71976297-91.52385661-92.17112535 19.67698132-4.91924502 26.14967349 19.02971259 38.18887941 29.12711111 25.37295053 36.76488651 75.85994311 41.03686281 115.99062873 31.84564149 7.50832238-24.46677333-18.64135111-48.28627794-23.17223465-73.01195852-8.02613689-36.11761778-54.62951466-40.38959408-68.09271349-73.52977423-9.06176831-19.93588978-21.23042725-57.86586075 6.47269216-67.7043508m115.99062874 26.66748799c-15.27555201 52.4288 51.52262281-14.36937482 0 0z" fill="#7D180F" p-id="2442"></path><path d="M411.02601482 700.17099851c51.52262281-14.36937482-15.27555201 52.4288 0 0z" fill="#FFFFF8" p-id="2443"></path></svg>